Run22_grf.mot									
version=1									
nRows=111									
nColumns=10									
inDegrees=yes									
endheader									
time	torso_vx	torso_vy	torso_vz	torso_px	torso_py	torso_pz	torso_x	torso_y	torso_z
0	0	0	0	-0.281378032	1.030343437	0.090085732	0	0	0
0.004873497	0.00031404	0.00005112	0	-0.281388798	1.030342553	0.090085732	0	0	0
0.005785328	0.00044122	0.00007182	0	-0.281393194	1.030342192	0.090085732	0	0	0
0.007238023	0.0006873	0.00011186	0	-0.281401739	1.03034149	0.090085732	0	0	0
0.013424259	0.0023168	0.0003771	0	-0.281458996	1.030336783	0.090085732	0	0	0
0.02458163	0.00749346	0.00121968	0	-0.281644006	1.030321525	0.090085732	0	0	0
0.035739002	0.01528934	0.00248858	0	-0.281925007	1.030298213	0.090085732	0	0	0
0.055057323	0.03418354	0.00556388	0	-0.282603749	1.030241219	0.090085732	0	0	0
0.058143671	0.0377684	0.00614738	0	-0.2827314	1.030230392	0.090085732	0	0	0
0.068736845	0.05113486	0.00832298	0	-0.28320288	1.030190105	0.090085732	0	0	0
0.070135186	0.05301618	0.00862918	0	-0.283268622	1.030184451	0.090085732	0	0	0
0.075632573	0.06066152	0.00987358	0	-0.283533858	1.030161545	0.090085733	0	0	0
0.084982697	0.07452982	0.01213086	0	-0.284006895	1.030120326	0.090085733	0	0	0
0.085993538	0.076091	0.01238496	0	-0.284059489	1.030115714	0.090085733	0	0	0
0.08771956	0.07878352	0.01282322	0	-0.284149771	1.030107784	0.090085733	0	0	0
0.092590139	0.08655916	0.01408882	0	-0.28440788	1.030085017	0.090085733	0	0	0
0.10040311	0.11219774	0.02275306	0	-0.284830552	1.030047431	0.090085733	0	0	0
0.109714238	1.22608626	0.59396454	0	-0.285343561	1.030001308	0.090085733	0	0	0
0.119025366	4.23706548	2.14758656	0	-0.28586141	1.029954187	0.090085733	0	0	0
0.120099478	4.69864354	2.38596732	0	-0.285921246	1.029948706	0.090085733	0	0	0
0.122200504	5.66703456	2.88618226	0	-0.286038137	1.029937976	0.090085733	0	0	0
0.12861277	9.14187336	4.68176324	0	-0.286393467	1.029905184	0.090085733	0	0	0
0.135216063	13.49784516	6.93352472	0	-0.286755069	1.029871541	0.090085733	0	0	0
0.138016221	15.57098396	8.00541278	0	-0.286906295	1.029857389	0.090085734	0	0	0
0.148173093	24.14907742	12.44146104	0	-0.287438233	1.029807226	0.090085734	0	0	0
0.149252634	25.15389706	12.9611568	0	-0.287492746	1.029802052	0.090085734	0	0	0
0.150564179	26.3977325	13.60448718	0	-0.287558382	1.029795813	0.090085734	0	0	0
0.157121902	32.98545256	17.01198952	0	-0.287874945	1.029765598	0.090085734	0	0	0
0.16900474	46.38870792	23.94571212	0	-0.288384995	1.029716469	0.090085734	0	0	0
0.170736245	48.4891811	25.0324	0	-0.288450815	1.029710089	0.090085734	0	0	0
0.179393771	59.51367788	30.73622546	0	-0.288739603	1.029681989	0.090085734	0	0	0
0.181143699	61.84356992	31.94170706	0	-0.288788839	1.029677181	0.090085734	0	0	0
0.183247466	64.68790978	33.41338258	0	-0.288843569	1.02967183	0.090085734	0	0	0
0.192217271	77.32420512	39.95169136	0	-0.289016419	1.029654889	0.090085734	0	0	0
0.193202036	78.7597476	40.6944946	0	-0.289028845	1.029653669	0.090085734	0	0	0
0.194641579	80.8747758	41.78889594	0	-0.289044526	1.029652129	0.090085734	0	0	0
0.201839298	91.71466188	47.44178928	0	-0.28907537	1.029649097	0.090085734	0	0	0
0.209037017	102.6738794	53.86509874	0	-0.289019068	1.029654629	0.090085734	0	0	0
0.21700069	114.7758534	62.05213308	0	-0.288844632	1.029671726	0.090085734	0	0	0
0.224964363	126.8549876	71.28978588	0	-0.288543735	1.029701067	0.090085734	0	0	0
0.240361415	150.1505346	91.83559542	0	-0.287575327	1.029794201	0.090085734	0	0	0
0.2514615	166.9022501	108.6058865	0	-0.286538241	1.029891748	0.090085733	0	0	0
0.262561585	183.6225119	126.8230348	0	-0.28519785	1.030014465	0.090085733	0	0	0
0.278368709	207.3852208	154.9664412	0	-0.282734062	1.030230166	0.090085732	0	0	0
0.294525778	231.6236338	186.0496755	0	-0.279500457	1.030493895	0.090085731	0	0	0
0.303561812	244.9475262	204.178357	0	-0.27735988	1.030658295	0.090085731	0	0	0
0.309438996	252.255829	215.3554446	0	-0.27583449	1.030781772	0.09008573	0	0	0
0.326741609	266.6600066	244.6922328	0	-0.270710273	1.031322573	0.090085729	0	0	0
0.344044222	271.7754356	269.367591	0	-0.264611743	1.032280091	0.090085727	0	0	0
0.360269096	269.4496752	288.9316206	0	-0.258002837	1.033693319	0.090085725	0	0	0
0.376493971	261.2846502	305.565296	0	-0.250560809	1.035706348	0.090085723	0	0	0
0.381349333	257.839974	310.040527	0	-0.248179795	1.036437592	0.090085723	0	0	0
0.389216289	251.370263	316.8457208	0	-0.244179649	1.037757031	0.090085722	0	0	0
0.403681425	236.961265	327.688292	0	-0.236396856	1.040638408	0.09008572	0	0	0
0.418146561	221.2408898	331.4526224	0	-0.228123098	1.044141871	0.090085718	0	0	0
0.432611697	205.046919	326.918083	0	-0.219436017	1.048283042	0.090085716	0	0	0
0.447076832	188.4431343	315.2023326	0	-0.210412534	1.053048402	0.090085713	0	0	0
0.48835059	139.2749653	250.3694674	0	-0.18349337	1.069657437	0.090085706	0	0	0
0.502331963	122.2137263	220.2671168	0	-0.174206523	1.076079749	0.090085703	0	0	0
0.516313336	106.5051868	191.528674	0	-0.164948195	1.082769813	0.0900857	0	0	0
0.530294709	92.81383736	166.5397167	0	-0.155780192	1.089650324	0.090085698	0	0	0
0.560327084	69.0402778	123.3384524	0	-0.136623406	1.104810292	0.090085691	0	0	0
0.566573333	64.91199276	115.8704709	0	-0.132758679	1.1080017	0.09008569	0	0	0
0.57518423	59.61658752	106.3108955	0	-0.127509945	1.112413414	0.090085688	0	0	0
0.588947283	52.01914362	92.64190262	0	-0.119325139	1.119486416	0.090085685	0	0	0
0.602710336	45.36806912	80.73019244	0	-0.111409982	1.126582634	0.090085681	0	0	0
0.616473389	39.55946618	70.35023136	0	-0.10378178	1.133701382	0.090085678	0	0	0
0.626081346	35.95098696	63.90598272	0	-0.098632883	1.138683909	0.090085676	0	0	0
0.635689302	32.6712774	58.05226076	0	-0.093630668	1.14367765	0.090085673	0	0	0
0.641608728	30.80114056	54.71609238	0	-0.09062204	1.146760098	0.090085671	0	0	0
0.651767616	27.8371036	49.43150564	0	-0.085588526	1.152060942	0.090085668	0	0	0
0.661926504	25.15738656	44.65760626	0	-0.080717917	1.157376941	0.090085665	0	0	0
0.674635603	22.16366212	39.32956936	0	-0.074850979	1.164051187	0.090085661	0	0	0
0.683119723	20.36502486	36.13175622	0	-0.071071965	1.168523727	0.090085658	0	0	0
0.691603844	18.7112832	33.19420048	0	-0.067400982	1.173011538	0.090085655	0	0	0
0.700736766	17.07955216	30.29865116	0	-0.063567693	1.177861453	0.090085652	0	0	0
0.709002915	15.7251993	27.89660184	0	-0.060201751	1.182269998	0.090085649	0	0	0
0.717269064	14.47831514	25.68533626	0	-0.056931893	1.186698446	0.090085645	0	0	0
0.726144092	13.24951054	23.50633326	0	-0.053525652	1.191476759	0.090085641	0	0	0
0.737441552	11.83512086	20.99853422	0	-0.049342202	1.197595661	0.090085636	0	0	0
0.748739011	10.5718589	18.75902456	0	-0.045324936	1.203753665	0.09008563	0	0	0
0.774553364	8.16895088	14.50033648	0	-0.036743465	1.217939868	0.090085615	0	0	0
0.79678293	6.54289246	11.61976802	0	-0.029986183	1.230204031	0.0900856	0	0	0
0.80557429	5.99317902	10.64630092	0	-0.027467159	1.23504074	0.090085594	0	0	0
0.81436565	5.48965198	9.7548381	0	-0.025031614	1.239858091	0.090085587	0	0	0
0.830151233	4.68929988	8.33839318	0	-0.02085933	1.248429354	0.090085574	0	0	0
0.853334279	3.72035652	6.62476596	0	-0.01516924	1.260722526	0.090085553	0	0	0
0.867365416	3.23390588	5.76514954	0	-0.011958639	1.267918217	0.09008554	0	0	0
0.881396554	2.81093028	5.01823462	0	-0.008909866	1.274874756	0.090085525	0	0	0
0.895427691	2.44312006	4.3692672	0	-0.006011675	1.28154755	0.09008551	0	0	0
0.905222142	2.21527692	3.96739484	0	-0.004071967	1.286011747	0.090085499	0	0	0
0.917678104	1.9569948	3.51007572	0	-0.001697272	1.291427819	0.090085484	0	0	0
0.927962039	1.76764934	3.17319792	0	0.000191088	1.295654338	0.090085472	0	0	0
0.938245974	1.5976626	2.86928536	0	0.002018709	1.299636374	0.090085459	0	0	0
0.949673882	1.42918016	2.56632724	0	0.00398295	1.30374925	0.090085445	0	0	0
0.961101789	1.27994138	2.29613842	0	0.005881177	1.307509311	0.09008543	0	0	0
0.972529696	1.1478681	2.05518008	0	0.007716748	1.310893557	0.090085416	0	0	0
0.983957603	1.03110658	1.84029564	0	0.009491838	1.313883591	0.090085402	0	0	0
0.99538551	0.92800332	1.6486693	0	0.011207617	1.316466771	0.090085389	0	0	0
1.006813417	0.83837184	1.47785252	0	0.012864325	1.318639788	0.090085376	0	0	0
1.018241324	0.76660324	1.32588424	0	0.014461215	1.32041117	0.090085365	0	0	0
1.033155461	0.69735748	1.15259716	0	0.016452988	1.322168311	0.090085352	0	0	0
1.048069598	0.6522172	1.0040319	0	0.01833748	1.323393316	0.090085343	0	0	0
1.068450203	0.62352776	0.8348528	0	0.020735601	1.324415253	0.090085334	0	0	0
1.077074155	0.62129162	0.77342236	0	0.021688607	1.324677772	0.090085332	0	0	0
1.084079243	0.6233146	0.72746102	0	0.022435964	1.324833736	0.09008533	0	0	0
1.09108433	0.62852884	0.68477252	0	0.023159794	1.324947356	0.090085329	0	0	0
1.099194995	0.63826936	0.63914476	0	0.023969444	1.325037568	0.090085328	0	0	0
1.103134144	0.66576466	0.82013556	0	0.024352058	1.325069149	0.090085328	0	0	0
1.107073293	0.7555717	1.58111108	0	0.024727868	1.325095042	0.090085328	0	0	0
1.112466462	0.97869064	3.5556575	0	0.025231107	1.325125949	0.090085327	0	0	0
